<?xml version="1.0"?>
<svg width="34" height="23" viewBox="0 0 34 23" xmlns="http://www.w3.org/2000/svg" xmlns:svg="http://www.w3.org/2000/svg">
  <g class="layer">
    <title>Layer 1</title>
    <path clip-rule="evenodd" d="m9.63,0.14l1.48,0.9c0.26,0.16 0.32,0.51 0.12,0.75c-2.15,2.65 -4.11,5.53 -4.11,9.09c2.94,0 5.97,2.43 5.97,5.53c0,4.33 -3.48,7.03 -6.96,6.53c-3.49,-0.5 -5.55,-3.02 -5.98,-6.03c-0.98,-6.91 2.84,-13.14 8.45,-16.76c0.31,-0.2 0.71,-0.2 1.03,-0.01zm20.91,0l1.47,0.9c0.26,0.16 0.32,0.51 0.13,0.75c-2.15,2.65 -4.11,5.53 -4.11,9.09c2.94,0 5.97,2.43 5.97,5.53c0,4.33 -3.48,7.03 -6.97,6.53c-3.48,-0.5 -5.54,-3.02 -5.97,-6.03c-0.98,-6.91 2.83,-13.14 8.44,-16.76c0.32,-0.2 0.72,-0.2 1.04,-0.01z" fill="#33a8ff" fill-rule="evenodd" id="svg_1"/>
  </g>
</svg>
