<?xml version="1.0" standalone="no"?>
<!DOCTYPE svg PUBLIC "-//W3C//DTD SVG 20010904//EN"
 "http://www.w3.org/TR/2001/REC-SVG-20010904/DTD/svg10.dtd">
<svg version="1.0" xmlns="http://www.w3.org/2000/svg"
 width="406.000000pt" height="494.000000pt" viewBox="0 0 406.000000 494.000000"
 preserveAspectRatio="xMidYMid meet">

<g transform="translate(0.000000,494.000000) scale(0.100000,-0.100000)"
fill="#000000" stroke="none">
<path d="M1246 4279 l1 -191 109 -60 c60 -33 153 -82 208 -110 54 -27 95 -53
90 -57 -5 -5 -155 -86 -334 -181 -179 -95 -351 -188 -383 -207 -44 -27 -62
-33 -80 -26 -32 12 -737 369 -769 390 -15 9 -29 15 -32 13 -2 -3 -6 -261 -7
-575 l-4 -570 131 -70 c73 -38 151 -83 175 -99 l43 -29 -22 -16 c-12 -9 -91
-52 -175 -96 l-152 -80 0 -604 0 -603 115 -62 c258 -139 587 -321 657 -362 41
-24 78 -44 83 -44 4 0 87 43 184 95 96 52 180 95 186 95 6 0 10 -6 9 -13 -1
-6 -1 -92 0 -189 l1 -176 128 -70 c70 -38 239 -131 375 -206 136 -75 254 -136
261 -136 8 0 65 29 128 64 62 35 221 123 353 196 132 73 247 139 255 146 12
12 16 50 18 187 2 95 8 176 12 181 5 5 85 -34 183 -88 l174 -96 114 66 c163
95 355 203 519 291 41 23 107 59 145 81 l70 40 2 608 3 609 -132 65 c-73 36
-151 79 -174 96 l-42 32 -167 -89 c-92 -50 -169 -88 -171 -86 -5 5 340 187
355 187 7 0 47 19 89 42 42 22 104 55 137 73 33 17 70 38 83 45 l22 15 -2 575
-3 575 -2 -574 c-3 -503 -5 -572 -18 -567 -8 3 -15 0 -15 -7 0 -7 -19 -23 -41
-36 -34 -19 -43 -20 -50 -10 -7 11 -9 10 -9 -4 0 -10 -4 -15 -10 -12 -5 3 -19
1 -31 -6 -15 -8 -19 -8 -15 0 4 6 3 11 -3 11 -5 0 -13 -5 -17 -11 -4 -8 -9 -7
-15 2 -15 23 -11 25 38 23 30 -2 42 1 33 6 -8 5 -18 6 -22 4 -4 -3 -19 7 -33
22 -14 15 -25 22 -25 15 0 -6 -7 -11 -16 -11 -14 0 -15 2 -3 17 13 15 10 16
-26 10 -22 -3 -33 -3 -24 -1 17 5 15 44 -2 44 -5 0 -9 5 -9 11 0 8 5 8 15 -1
14 -12 17 -9 14 18 0 4 -7 6 -14 4 -10 -2 -13 3 -9 13 4 9 1 15 -9 15 -10 0
-13 7 -10 20 3 11 11 20 19 20 7 0 16 5 20 12 4 7 3 8 -4 4 -7 -4 -17 -4 -23
0 -8 4 -7 9 2 15 10 6 7 9 -11 10 -14 1 -30 1 -37 0 -6 -1 -15 4 -19 10 -5 8
2 10 25 7 17 -2 31 -1 31 3 0 15 -26 16 -57 3 -20 -8 -35 -9 -38 -3 -4 5 -1 9
4 9 6 0 11 5 11 10 0 6 -6 10 -12 9 -27 -3 -56 13 -54 29 2 10 -6 26 -17 37
-11 11 -17 14 -13 8 4 -7 2 -21 -3 -30 -6 -10 -11 -13 -11 -6 0 7 -7 10 -15 7
-8 -4 -15 -1 -15 5 0 6 5 11 10 11 16 0 12 30 -5 36 -8 4 -12 10 -9 15 3 5 -2
9 -11 9 -9 0 -14 4 -11 9 3 5 -2 8 -12 7 -17 -1 -19 6 -7 37 4 10 4 17 -1 16
-20 -3 -33 2 -58 27 -14 15 -26 22 -26 17 0 -6 7 -16 15 -23 17 -14 20 -30 4
-30 -5 0 -15 14 -20 30 -6 17 -16 30 -22 31 -7 0 -2 4 11 9 12 5 22 14 22 21
0 6 -7 8 -16 5 -12 -4 -15 -2 -10 9 3 8 -3 19 -13 25 -17 8 -19 6 -16 -16 1
-13 -2 -23 -8 -21 -14 4 -16 69 -3 86 8 11 8 13 -1 7 -7 -4 -13 -2 -13 3 0 19
-20 12 -21 -6 0 -12 -2 -13 -6 -5 -3 7 1 19 7 27 9 11 9 15 1 15 -6 0 -12 10
-12 23 -1 19 -2 19 -6 3 -4 -15 -7 -16 -14 -5 -5 8 -9 -44 -9 -133 0 -96 -4
-148 -10 -148 -6 0 -10 6 -9 13 1 6 1 82 0 167 l-1 155 -43 26 c-23 15 -89 52
-147 82 -58 31 -173 93 -256 139 -83 46 -189 103 -237 128 -48 25 -87 50 -87
55 0 6 69 46 152 90 83 44 171 92 195 107 l43 28 -4 52 c-3 29 -5 114 -6 190
l0 136 -122 -65 c-256 -136 -639 -333 -648 -333 -5 0 -181 90 -390 200 -209
110 -384 200 -388 200 -4 0 -7 -86 -6 -191z m1013 -816 c119 -64 284 -152 366
-195 189 -99 178 -92 183 -107 3 -9 -4 -8 -21 4 -14 9 -26 12 -29 6 -3 -9
-174 -101 -557 -299 l-165 -85 -42 24 c-24 13 -42 25 -39 27 2 2 21 -6 42 -18
l38 -22 120 62 c66 34 149 78 185 98 114 62 273 146 343 181 37 18 67 36 67
40 0 10 -251 136 -274 137 -11 0 -40 7 -63 14 -34 10 -45 11 -58 0 -16 -13
-21 -35 -7 -26 5 3 9 -1 9 -9 0 -13 -2 -13 -17 0 -14 13 -19 13 -38 -1 -12 -8
-22 -11 -22 -7 0 7 -34 9 -60 4 -3 -1 6 -10 20 -21 l25 -20 -22 0 c-13 0 -23
4 -23 10 0 5 -8 6 -17 3 -17 -6 -17 -6 0 11 19 20 18 37 -3 44 -7 3 -10 0 -6
-7 5 -7 1 -9 -8 -5 -12 5 -13 11 -5 25 8 16 6 19 -11 19 -14 0 -19 -4 -14 -12
5 -8 2 -9 -9 -5 -11 4 -17 1 -17 -8 0 -17 -36 -20 -46 -4 -3 6 0 15 7 20 11 6
11 11 2 20 -10 10 -14 6 -22 -14 -6 -15 -13 -27 -15 -27 -3 0 -3 7 0 15 4 9 0
15 -10 15 -9 0 -16 -6 -17 -12 0 -10 -2 -10 -6 0 -2 6 -9 9 -15 6 -6 -4 -14 0
-19 7 -6 10 -9 11 -9 1 0 -9 -8 -10 -27 -6 -26 7 -27 6 -13 -11 9 -11 10 -16
3 -11 -7 4 -13 2 -13 -3 0 -6 -7 -11 -15 -11 -8 0 -15 4 -15 10 0 5 -7 7 -16
3 -9 -3 -20 0 -25 8 -8 12 -10 12 -8 -1 3 -27 -1 -40 -12 -40 -5 0 -7 5 -4 10
3 6 0 10 -9 10 -8 0 -23 3 -33 6 -15 5 -15 4 -3 -5 13 -9 12 -11 -3 -11 -11 0
-15 -4 -11 -12 5 -7 3 -8 -7 -2 -8 4 -23 7 -34 6 -15 -2 -21 3 -21 18 0 11 5
20 10 20 5 0 7 2 4 5 -11 12 -37 -7 -31 -23 4 -12 -1 -10 -14 6 -14 15 -27 20
-39 16 -17 -6 -17 -5 1 10 19 16 19 16 -7 5 -15 -7 -25 -16 -22 -20 5 -8 -10
-13 -29 -10 -7 1 -252 -123 -265 -134 -2 -2 17 -13 43 -26 25 -13 51 -30 58
-38 7 -8 -22 3 -63 25 l-76 39 156 82 c85 44 252 133 370 197 118 63 219 115
224 116 5 0 106 -53 225 -117z m-277 -145 c-7 -7 -12 -8 -12 -2 0 14 12 26 19
19 2 -3 -1 -11 -7 -17z m-88 -17 c4 -5 -3 -7 -14 -4 -23 6 -26 13 -6 13 8 0
17 -4 20 -9z m791 -109 c-3 -3 -11 0 -18 7 -9 10 -8 11 6 5 10 -3 15 -9 12
-12z m-1220 -92 c3 -6 -1 -7 -9 -4 -18 7 -21 14 -7 14 6 0 13 -4 16 -10z
m1737 -50 c-6 -41 -12 -38 -12 6 0 19 4 33 8 30 5 -3 7 -19 4 -36z m223 22
c-3 -3 -11 0 -18 7 -9 10 -8 11 6 5 10 -3 15 -9 12 -12z m-1817 -45 c28 -15
52 -30 52 -32 0 -3 -31 11 -70 30 -38 19 -70 37 -70 40 0 6 24 -4 88 -38z
m1842 23 c0 -5 -5 -10 -11 -10 -5 0 -7 5 -4 10 3 6 8 10 11 10 2 0 4 -4 4 -10z
m-1715 -90 c3 -6 -1 -7 -9 -4 -18 7 -21 14 -7 14 6 0 13 -4 16 -10z m2085
-350 c-8 -5 -19 -10 -25 -10 -5 0 -3 5 5 10 8 5 20 10 25 10 6 0 3 -5 -5 -10z
m165 -329 c-6 -5 -55 -34 -110 -64 -55 -30 -122 -67 -150 -83 -107 -59 -26 -5
108 73 130 75 177 98 152 74z"/>
<path d="M2440 3335 c14 -8 30 -14 35 -14 6 0 -1 6 -15 14 -14 8 -29 14 -35
14 -5 0 1 -6 15 -14z"/>
<path d="M2098 3323 c7 -3 16 -2 19 1 4 3 -2 6 -13 5 -11 0 -14 -3 -6 -6z"/>
<path d="M2240 3315 c0 -16 16 -20 24 -6 3 5 -1 11 -9 15 -9 3 -15 0 -15 -9z"/>
<path d="M3216 3423 c-6 -14 -5 -15 5 -6 7 7 10 15 7 18 -3 3 -9 -2 -12 -12z"/>
<path d="M3305 3323 c3 -3 0 -12 -6 -20 -9 -10 -8 -13 4 -13 15 0 18 24 4 35
-4 3 -5 2 -2 -2z"/>
<path d="M3570 2986 c0 -8 4 -17 9 -20 5 -4 7 3 4 14 -6 23 -13 26 -13 6z"/>
<path d="M3595 2980 c3 -5 8 -10 11 -10 2 0 4 5 4 10 0 6 -5 10 -11 10 -5 0
-7 -4 -4 -10z"/>
<path d="M3740 2770 c-8 -5 -12 -11 -9 -14 2 -3 11 -1 19 4 8 5 12 11 9 14 -2
3 -11 1 -19 -4z"/>
</g>
</svg>
